<?xml version="1.0" encoding="UTF-8" standalone="no"?>
<!-- Created with Inkscape (http://www.inkscape.org/) -->

<svg
   width="210mm"
   height="297mm"
   viewBox="0 0 210 297"
   version="1.1"
   id="svg5"
   sodipodi:docname="back03.svg"
   inkscape:version="1.1.2 (b8e25be833, 2022-02-05)"
   xmlns:inkscape="http://www.inkscape.org/namespaces/inkscape"
   xmlns:sodipodi="http://sodipodi.sourceforge.net/DTD/sodipodi-0.dtd"
   xmlns="http://www.w3.org/2000/svg"
   xmlns:svg="http://www.w3.org/2000/svg">
  <sodipodi:namedview
     id="namedview7"
     pagecolor="#505050"
     bordercolor="#eeeeee"
     borderopacity="1"
     inkscape:pageshadow="0"
     inkscape:pageopacity="0"
     inkscape:pagecheckerboard="0"
     inkscape:document-units="mm"
     showgrid="false"
     inkscape:zoom="0.61465622"
     inkscape:cx="130.15406"
     inkscape:cy="543.39318"
     inkscape:window-width="1858"
     inkscape:window-height="1057"
     inkscape:window-x="-8"
     inkscape:window-y="-8"
     inkscape:window-maximized="1"
     inkscape:current-layer="layer1" />
  <defs
     id="defs2" />
  <g
     inkscape:label="Ebene 1"
     inkscape:groupmode="layer"
     id="layer1">
    <path
       style="fill:#000000;stroke-width:0.340987"
       d="M -8.1302114,278.23221 V 174.06057 H 110.87438 229.87897 V 278.23221 382.40386 H 110.87438 -8.1302114 Z"
       id="path602" />
    <path
       style="fill:#000000;stroke:#000000;stroke-width:0.02;stroke-miterlimit:4;stroke-dasharray:none;stroke-opacity:1"
       d="m -1.2428926,181.8088 c -0.1265817,-0.65107 -1.6093083,-14.06519 -3.2949476,-29.80918 l -3.0648,-28.62541 L 7.184495,93.242191 c 8.132924,-16.572611 14.903687,-30.228873 15.04614,-30.347248 0.142453,-0.118377 5.056337,4.385284 10.919744,10.008134 5.863407,5.622851 10.798606,10.223365 10.967114,10.223365 0.168502,0 4.002844,-3.590409 8.520752,-7.978687 l 8.214384,-7.978688 5.111605,7.225387 c 2.811388,3.973963 7.022811,9.929027 9.358725,13.23348 2.335921,3.30445 4.30154,5.822627 4.368046,5.595945 0.06651,-0.226679 2.079294,-9.126672 4.472863,-19.77776 2.393561,-10.651088 4.399502,-19.413183 4.457639,-19.47132 0.05814,-0.05814 4.717783,7.25202 10.35477,16.244798 5.636983,8.992777 10.404923,16.350503 10.595413,16.350503 0.1905,0 8.92226,-6.100865 19.40391,-13.557482 10.48166,-7.456615 19.18978,-13.413071 19.35138,-13.236565 0.1616,0.176504 4.79477,8.698693 10.29593,18.9382 5.50117,10.239505 10.14451,18.617285 10.31854,18.617285 0.17402,0 6.00978,-10.162408 12.96835,-22.583129 9.1384,-16.31161 12.73825,-22.378342 12.96271,-21.845715 0.17091,0.405578 3.33307,11.583242 7.02702,24.83925 3.69395,13.256011 6.81884,24.200386 6.94422,24.320846 0.23698,0.22768 2.63057,-2.316488 11.20797,-11.913105 2.78988,-3.121387 5.16936,-5.687795 5.28773,-5.703128 0.11838,-0.01532 2.5199,21.424853 5.3367,47.644843 2.81681,26.22 5.21521,48.39912 5.32978,49.28694 l 0.20832,1.61422 H 117.60075 -1.0127443 Z"
       id="path4787" />
  </g>
</svg>
