<?xml version="1.0" encoding="UTF-8" standalone="no"?>
<!-- Created with Inkscape (http://www.inkscape.org/) -->

<svg
   width="210mm"
   height="297mm"
   viewBox="0 0 210 297"
   version="1.1"
   id="svg5"
   sodipodi:docname="back01.svg"
   inkscape:version="1.1.2 (b8e25be833, 2022-02-05)"
   xmlns:inkscape="http://www.inkscape.org/namespaces/inkscape"
   xmlns:sodipodi="http://sodipodi.sourceforge.net/DTD/sodipodi-0.dtd"
   xmlns="http://www.w3.org/2000/svg"
   xmlns:svg="http://www.w3.org/2000/svg">
  <sodipodi:namedview
     id="namedview7"
     pagecolor="#505050"
     bordercolor="#eeeeee"
     borderopacity="1"
     inkscape:pageshadow="0"
     inkscape:pageopacity="0"
     inkscape:pagecheckerboard="0"
     inkscape:document-units="mm"
     showgrid="false"
     inkscape:zoom="0.54866744"
     inkscape:cx="265.18796"
     inkscape:cy="599.63463"
     inkscape:window-width="1858"
     inkscape:window-height="1057"
     inkscape:window-x="-8"
     inkscape:window-y="-8"
     inkscape:window-maximized="1"
     inkscape:current-layer="layer1" />
  <defs
     id="defs2" />
  <g
     inkscape:label="Ebene 1"
     inkscape:groupmode="layer"
     id="layer1">
    <path
       style="fill:#000000;stroke-width:0.340987"
       d="M -8.1302114,278.23221 V 174.06057 H 110.87438 229.87897 V 278.23221 382.40386 H 110.87438 -8.1302114 Z"
       id="path602" />
    <path
       style="fill:#000000;stroke-width:0.241115"
       d="m -7.6852184,172.91528 c 0.2447458,-0.62992 3.8419737,-10.17805 7.99383836,-21.21807 4.15186484,-11.04003 7.61196074,-20.06896 7.68910194,-20.06428 0.077141,0.005 3.9874651,6.57909 8.6896081,14.60981 4.702142,8.03072 8.662447,14.75431 8.800678,14.94132 0.200926,0.27182 2.498395,-1.52552 11.456172,-8.96233 6.162662,-5.11629 11.274711,-9.34553 11.360105,-9.3983 0.0854,-0.0528 3.831841,2.49658 8.325429,5.66525 4.493594,3.16867 8.240255,5.68868 8.325919,5.60002 0.08566,-0.0887 4.528823,-8.59015 9.873692,-18.89223 5.344869,-10.30207 9.805572,-18.67688 9.912672,-18.61069 0.107099,0.0662 5.959907,7.27561 13.006237,16.02093 l 12.811506,15.90059 0.74929,-0.56153 c 0.41211,-0.30884 6.97247,-5.25337 14.57857,-10.98784 7.60611,-5.73448 13.88335,-10.37226 13.94943,-10.30618 0.0661,0.0661 1.07024,4.11438 2.23148,8.99622 1.16123,4.88184 2.21617,8.85522 2.34429,8.82973 0.22311,-0.0444 31.73558,-19.91147 32.29371,-20.35962 0.19309,-0.15504 1.49788,4.70561 4.55436,16.9661 2.35606,9.45087 4.35229,17.26158 4.43608,17.35714 0.0838,0.0956 3.0736,-2.20783 6.64405,-5.11864 5.60403,-4.56868 6.54301,-5.2489 6.8668,-4.97442 2.83506,2.40328 28.74646,24.72841 29.18278,25.14374 l 0.5973,0.56857 H 110.42884 -8.1302114 Z"
       id="path1119" />
  </g>
</svg>
